HIERARCHY
ROOT Hips
{
	OFFSET 17.103728 0.274132 4.875753
	CHANNELS 6 Xposition Yposition Zposition Zrotation Yrotation Xrotation 
	JOINT Spine
	{
		OFFSET -0.000001 8.340413 -2.713949
		CHANNELS 3 Zrotation Yrotation Xrotation
		JOINT Spine1
		{
			OFFSET 0.000000 11.909995 -2.100054
			CHANNELS 3 Zrotation Yrotation Xrotation
			JOINT Spine2
			{
				OFFSET 0.000000 12.047703 -1.054038
				CHANNELS 3 Zrotation Yrotation Xrotation
				JOINT Spine3
				{
					OFFSET 0.000000 12.093727 0.000000
					CHANNELS 3 Zrotation Yrotation Xrotation
					JOINT Neck
					{
						OFFSET 0.000000 15.549080 1.554906
						CHANNELS 3 Zrotation Yrotation Xrotation
						JOINT Neck1
						{
							OFFSET 0.000000 4.687340 0.410089
							CHANNELS 3 Zrotation Yrotation Xrotation
							JOINT Head
							{
								OFFSET 0.000000 4.633774 0.817058
								CHANNELS 3 Zrotation Yrotation Xrotation
								JOINT HeadEnd
								{
									OFFSET 0.000000 9.727722 0.000000
									CHANNELS 3 Zrotation Yrotation Xrotation
									End Site
									{
										OFFSET 0.000000 0.000000 0.000000
									}
								}
							}
						}
					}
					JOINT RightShoulder
					{
						OFFSET 0.000000 11.106487 6.072617
						CHANNELS 3 Zrotation Yrotation Xrotation
						JOINT RightArm
						{
							OFFSET -19.427898 0.000008 0.000000
							CHANNELS 3 Zrotation Yrotation Xrotation
							JOINT RightForeArm
							{
								OFFSET -29.350750 0.000008 0.000000
								CHANNELS 3 Zrotation Yrotation Xrotation
								JOINT RightHand
								{
									OFFSET -27.018089 0.000008 0.000000
									CHANNELS 3 Zrotation Yrotation Xrotation
									JOINT RightHandMiddle1
									{
										OFFSET -9.244034 0.000003 -0.000001
										CHANNELS 3 Zrotation Yrotation Xrotation
										JOINT RightHandMiddle2
										{
											OFFSET -4.870026 0.000000 -0.000001
											CHANNELS 3 Zrotation Yrotation Xrotation
											JOINT RightHandMiddle3
											{
												OFFSET -3.169075 0.000000 0.000001
												CHANNELS 3 Zrotation Yrotation Xrotation
												JOINT RightHandMiddle4
												{
													OFFSET -1.888374 0.000000 0.000000
													CHANNELS 3 Zrotation Yrotation Xrotation
													End Site
													{
														OFFSET 0.000000 0.000000 0.000000
													}
												}
											}
										}
									}
									JOINT RightHandRing
									{
										OFFSET -0.250000 -0.250000 -0.956503
										CHANNELS 3 Zrotation Yrotation Xrotation
										JOINT RightHandRing1
										{
											OFFSET -8.140220 0.000004 -0.734604
											CHANNELS 3 Zrotation Yrotation Xrotation
											JOINT RightHandRing2
											{
												OFFSET -4.501563 0.000000 -0.406237
												CHANNELS 3 Zrotation Yrotation Xrotation
												JOINT RightHandRing3
												{
													OFFSET -3.068841 0.000000 -0.276944
													CHANNELS 3 Zrotation Yrotation Xrotation
													JOINT RightHandRing4
													{
														OFFSET -1.869918 -0.000002 -0.168749
														CHANNELS 3 Zrotation Yrotation Xrotation
														End Site
														{
															OFFSET 0.000000 0.000000 0.000000
														}
													}
												}
											}
										}
										JOINT RightHandPinky
										{
											OFFSET -0.163017 -0.250001 -0.975101
											CHANNELS 3 Zrotation Yrotation Xrotation
											JOINT RightHandPinky1
											{
												OFFSET -6.681489 0.000004 -1.494111
												CHANNELS 3 Zrotation Yrotation Xrotation
												JOINT RightHandPinky2
												{
													OFFSET -3.580948 0.000000 -0.800769
													CHANNELS 3 Zrotation Yrotation Xrotation
													JOINT RightHandPinky3
													{
														OFFSET -2.276527 0.000000 -0.509077
														CHANNELS 3 Zrotation Yrotation Xrotation
														JOINT RightHandPinky4
														{
															OFFSET -1.690346 0.000000 -0.377994
															CHANNELS 3 Zrotation Yrotation Xrotation
															End Site
															{
																OFFSET 0.000000 0.000000 0.000000
															}
														}
													}
												}
											}
										}
									}
									JOINT RightHandIndex
									{
										OFFSET -0.250000 -0.250000 0.956504
										CHANNELS 3 Zrotation Yrotation Xrotation
										JOINT RightHandIndex1
										{
											OFFSET -8.934097 0.000004 0.806248
											CHANNELS 3 Zrotation Yrotation Xrotation
											JOINT RightHandIndex2
											{
												OFFSET -4.694687 0.000000 0.423666
												CHANNELS 3 Zrotation Yrotation Xrotation
												JOINT RightHandIndex3
												{
													OFFSET -2.811722 0.000000 0.253741
													CHANNELS 3 Zrotation Yrotation Xrotation
													JOINT RightHandIndex4
													{
														OFFSET -1.709945 0.000000 0.154311
														CHANNELS 3 Zrotation Yrotation Xrotation
														End Site
														{
															OFFSET 0.000000 0.000000 0.000000
														}
													}
												}
											}
										}
										JOINT RightHandThumb1
										{
											OFFSET -0.163017 -0.750000 0.975101
											CHANNELS 3 Zrotation Yrotation Xrotation
											JOINT RightHandThumb2
											{
												OFFSET -5.411659 0.835533 2.244703
												CHANNELS 3 Zrotation Yrotation Xrotation
												JOINT RightHandThumb3
												{
													OFFSET -3.567184 0.550758 1.479634
													CHANNELS 3 Zrotation Yrotation Xrotation
													JOINT RightHandThumb4
													{
														OFFSET -2.150558 0.332031 0.892029
														CHANNELS 3 Zrotation Yrotation Xrotation
														End Site
														{
															OFFSET 0.000000 0.000000 0.000000
														}
													}
												}
											}
										}
									}
								}
							}
						}
					}
					JOINT LeftShoulder
					{
						OFFSET 0.000000 11.106488 6.072617
						CHANNELS 3 Zrotation Yrotation Xrotation
						JOINT LeftArm
						{
							OFFSET 19.427898 0.000008 0.000000
							CHANNELS 3 Zrotation Yrotation Xrotation
							JOINT LeftForeArm
							{
								OFFSET 29.350750 0.000008 0.000000
								CHANNELS 3 Zrotation Yrotation Xrotation
								JOINT LeftHand
								{
									OFFSET 27.018089 0.000008 0.000000
									CHANNELS 3 Zrotation Yrotation Xrotation
									JOINT LeftHandMiddle1
									{
										OFFSET 9.402671 0.000003 0.000001
										CHANNELS 3 Zrotation Yrotation Xrotation
										JOINT LeftHandMiddle2
										{
											OFFSET 4.950096 0.000000 0.000000
											CHANNELS 3 Zrotation Yrotation Xrotation
											JOINT LeftHandMiddle3
											{
												OFFSET 3.211952 0.000000 0.000000
												CHANNELS 3 Zrotation Yrotation Xrotation
												JOINT LeftHandMiddle4
												{
													OFFSET 1.927605 0.000000 0.000000
													CHANNELS 3 Zrotation Yrotation Xrotation
													End Site
													{
														OFFSET 0.000000 0.000000 0.000000
													}
												}
											}
										}
									}
									JOINT LeftHandRing
									{
										OFFSET 0.250000 -0.250000 -0.906160
										CHANNELS 3 Zrotation Yrotation Xrotation
										JOINT LeftHandRing1
										{
											OFFSET 8.286079 0.000004 -0.747766
											CHANNELS 3 Zrotation Yrotation Xrotation
											JOINT LeftHandRing2
											{
												OFFSET 4.585473 0.000000 -0.413811
												CHANNELS 3 Zrotation Yrotation Xrotation
												JOINT LeftHandRing3
												{
													OFFSET 3.124420 0.000000 -0.281959
													CHANNELS 3 Zrotation Yrotation Xrotation
													JOINT LeftHandRing4
													{
														OFFSET 1.908767 0.000000 -0.172254
														CHANNELS 3 Zrotation Yrotation Xrotation
														End Site
														{
															OFFSET 0.000000 0.000000 0.000000
														}
													}
												}
											}
										}
										JOINT LeftHandPinky
										{
											OFFSET 0.167542 -0.250000 -0.924961
											CHANNELS 3 Zrotation Yrotation Xrotation
											JOINT LeftHandPinky1
											{
												OFFSET 6.823502 0.000005 -1.525868
												CHANNELS 3 Zrotation Yrotation Xrotation
												JOINT LeftHandPinky2
												{
													OFFSET 3.642831 0.000000 -0.814608
													CHANNELS 3 Zrotation Yrotation Xrotation
													JOINT LeftHandPinky3
													{
														OFFSET 2.333107 0.000000 -0.521728
														CHANNELS 3 Zrotation Yrotation Xrotation
														JOINT LeftHandPinky4
														{
															OFFSET 1.725463 0.000000 -0.385847
															CHANNELS 3 Zrotation Yrotation Xrotation
															End Site
															{
																OFFSET 0.000000 0.000000 0.000000
															}
														}
													}
												}
											}
										}
									}
									JOINT LeftHandIndex
									{
										OFFSET 0.250000 -0.250000 0.906160
										CHANNELS 3 Zrotation Yrotation Xrotation
										JOINT LeftHandIndex1
										{
											OFFSET 9.088006 0.000003 0.820136
											CHANNELS 3 Zrotation Yrotation Xrotation
											JOINT LeftHandIndex2
											{
												OFFSET 4.776550 0.000000 0.431054
												CHANNELS 3 Zrotation Yrotation Xrotation
												JOINT LeftHandIndex3
												{
													OFFSET 2.865135 0.000001 0.258561
													CHANNELS 3 Zrotation Yrotation Xrotation
													JOINT LeftHandIndex4
													{
														OFFSET 1.745475 0.000001 0.157519
														CHANNELS 3 Zrotation Yrotation Xrotation
														End Site
														{
															OFFSET 0.000000 0.000000 0.000000
														}
													}
												}
											}
										}
										JOINT LeftHandThumb1
										{
											OFFSET 0.167542 -0.750000 0.924962
											CHANNELS 3 Zrotation Yrotation Xrotation
											JOINT LeftHandThumb2
											{
												OFFSET 5.551452 0.857117 2.302688
												CHANNELS 3 Zrotation Yrotation Xrotation
												JOINT LeftHandThumb3
												{
													OFFSET 3.625626 0.559779 1.503871
													CHANNELS 3 Zrotation Yrotation Xrotation
													JOINT LeftHandThumb4
													{
														OFFSET 2.195244 0.338936 0.910563
														CHANNELS 3 Zrotation Yrotation Xrotation
														End Site
														{
															OFFSET 0.000000 0.000000 0.000000
														}
													}
												}
											}
										}
									}
								}
							}
						}
					}
				}
			}
		}
	}
	JOINT RightUpLeg
	{
		OFFSET -8.786538 0.000000 0.000000
		CHANNELS 3 Zrotation Yrotation Xrotation
		JOINT RightLeg
		{
			OFFSET 0.000000 -42.170410 0.000000
			CHANNELS 3 Zrotation Yrotation Xrotation
			JOINT RightFoot
			{
				OFFSET 0.000000 -45.949150 0.000000
				CHANNELS 3 Zrotation Yrotation Xrotation
				JOINT RightForeFoot
				{
					OFFSET -0.000001 -4.685799 0.000000
					CHANNELS 3 Zrotation Yrotation Xrotation
					JOINT RightToeBase
					{
						OFFSET 0.000000 0.000000 18.351074
						CHANNELS 3 Zrotation Yrotation Xrotation
						JOINT RightToeBaseEnd
						{
							OFFSET 0.000000 0.000000 6.416922
							CHANNELS 3 Zrotation Yrotation Xrotation
							End Site
							{
								OFFSET 0.000000 0.000000 0.000000
							}
						}
					}
				}
			}
		}
	}
	JOINT LeftUpLeg
	{
		OFFSET 8.786538 0.000000 0.000000
		CHANNELS 3 Zrotation Yrotation Xrotation
		JOINT LeftLeg
		{
			OFFSET 0.000000 -42.170410 0.000000
			CHANNELS 3 Zrotation Yrotation Xrotation
			JOINT LeftFoot
			{
				OFFSET -0.000001 -45.949150 0.000000
				CHANNELS 3 Zrotation Yrotation Xrotation
				JOINT LeftForeFoot
				{
					OFFSET 0.000000 -4.685799 0.000000
					CHANNELS 3 Zrotation Yrotation Xrotation
					JOINT LeftToeBase
					{
						OFFSET 0.000000 0.000001 18.351074
						CHANNELS 3 Zrotation Yrotation Xrotation
						JOINT LeftToeBaseEnd
						{
							OFFSET 0.000000 0.000000 7.522032
							CHANNELS 3 Zrotation Yrotation Xrotation
							End Site
							{
								OFFSET 0.000000 0.000000 0.000000
							}
						}
					}
				}
			}
		}
	}
}
MOTION
Frames: 5
Frame Time: 0.050000
18.584510 -0.528312 23.208497 4.131624 11.450257 -8.933128 -1.728759 -0.186784 8.016105 0.136905 0.041290 -1.437979 -0.222407 0.054667 1.052649 1.735212 0.492036 9.545108 5.909851 0.323297 4.663049 -11.576291 5.369725 4.084255 -4.306380 1.016430 2.156372 -0.000017 0.000044 0.000001 7.705407 -10.760098 -1.494258 59.572067 2.751944 14.235138 0.000099 70.954941 -7.307778 12.594248 -11.404710 0.055531 17.585556 -9.333379 0.001743 -8.700190 0.000021 0.000053 -1.028877 -0.000002 0.000017 0.000001 -0.000024 -0.000002 -0.815111 -3.251133 -8.990307 26.405390 -9.491611 -2.300890 20.665688 0.415997 -1.825336 0.085689 0.002655 -0.007734 0.000001 -0.000002 -0.000013 -2.173400 -4.800360 -3.111834 24.378357 -6.478172 -5.193931 23.440176 1.113284 -5.104545 13.060328 0.337048 -2.896632 0.000010 -0.000005 0.000003 0.124321 6.975438 0.903461 11.028614 -5.682557 1.003592 -10.949845 -0.124445 -0.982239 -2.970492 -0.017787 -0.267951 0.000009 0.000010 -0.000006 11.435503 0.198010 48.013023 -2.173235 12.639200 1.457491 -16.327915 9.150298 -6.335853 0.000007 -0.000017 -0.000076 -9.911994 7.818753 -1.412973 -55.375378 -4.955811 8.940465 -0.000120 -84.689384 -18.095835 -11.241801 10.149807 0.010585 -18.112625 5.355354 -0.008549 -36.818291 -0.000006 0.000020 -17.255091 0.000001 0.000012 0.000009 -0.000008 -0.000008 -0.722804 1.852342 -12.358526 -15.321522 5.115568 -1.360910 -45.078419 -1.551834 -3.663835 -9.058564 -0.077832 -0.814120 0.000012 0.000019 -0.000055 -0.281535 1.145289 -5.862668 -6.514713 10.817940 -1.419881 -32.803978 -2.103028 -6.959879 -22.479757 -1.022708 -4.905823 0.000019 0.000035 0.000004 0.060331 -6.718665 -4.510074 -19.074944 11.773027 1.754895 -29.117357 0.755957 2.517170 -11.458908 0.114821 1.027304 -0.000002 -0.000010 0.000002 -12.659361 5.460361 48.931065 -1.226419 2.572446 0.050685 -5.208214 3.467080 1.415479 -0.000029 0.000031 -0.000001 -14.568627 -1.260805 0.754074 -0.000028 -0.000009 25.217360 -2.288165 -26.741926 -11.471613 -0.000067 -0.000029 -0.000006 -0.000033 0.000001 10.864582 0.000074 -0.000007 0.000016 -11.918476 -2.838377 16.160955 -0.000001 -0.000001 0.263963 9.606364 27.079321 -9.971985 0.000000 -0.000002 0.000047 0.000001 -0.000034 18.548544 0.000001 0.000007 0.000001 
18.133512 -0.521342 23.268643 4.251891 11.485385 -8.793277 -1.917012 -0.158808 8.214573 0.094423 0.060103 -1.408538 -0.298775 0.175392 1.155353 1.647276 0.516398 9.797594 5.649574 0.666298 4.981773 -11.658366 5.791185 3.766216 -4.384782 1.054905 2.075774 -0.000016 0.000044 0.000001 8.165206 -11.113794 -1.626286 60.663345 -0.323189 14.030645 0.000094 69.023262 -8.090065 14.201977 -11.270377 0.059235 16.741875 -9.336907 0.001743 -9.609221 0.000021 0.000054 -1.510120 -0.000002 0.000017 0.000001 -0.000027 -0.000002 -0.882381 -3.151465 -9.177341 24.070644 -9.730389 -2.110739 17.817936 0.323832 -1.582582 -0.453984 0.001176 0.040969 0.000001 -0.000002 -0.000013 -2.224957 -4.609046 -3.483910 22.983414 -8.042906 -4.901744 21.686983 0.951069 -4.740883 12.044966 0.276636 -2.674636 0.000011 -0.000005 0.000003 -0.030604 6.976726 0.779899 10.523584 -5.500389 0.959042 -11.860268 -0.133223 -1.062788 -3.523753 -0.017496 -0.317800 0.000009 0.000010 -0.000006 10.988158 0.902739 47.543716 -2.700332 12.997774 1.312574 -16.606186 9.283006 -6.462784 0.000006 -0.000017 -0.000077 -10.565717 8.224092 -1.568165 -56.864410 -1.079080 10.937134 -0.000193 -86.454033 -19.040535 -11.609097 10.125499 0.009550 -12.507822 6.496917 -0.013918 -33.802780 -0.000006 0.000019 -14.921667 0.000001 0.000011 0.000009 -0.000008 -0.000009 -0.767189 1.942998 -12.283959 -10.046746 5.455605 -0.898550 -42.951977 -1.410477 -3.525522 -7.423397 -0.057182 -0.668074 0.000012 0.000019 -0.000056 -0.379562 1.227840 -6.255940 -2.008507 11.862628 -0.438752 -31.624805 -1.955011 -6.734990 -20.695133 -0.869720 -4.533389 0.000018 0.000034 0.000003 0.183306 -6.600900 -4.186400 -13.468988 11.260283 1.252991 -24.418303 0.581068 2.138410 -9.523956 0.085968 0.855582 -0.000002 -0.000010 0.000002 -13.082037 3.529485 46.601715 0.254286 1.642811 -0.429673 -3.562024 2.381350 0.960592 -0.000029 0.000030 -0.000001 -14.501790 -1.116996 0.825875 -0.000027 -0.000010 25.154539 -2.179574 -26.222229 -12.029002 -0.000069 -0.000028 -0.000006 -0.000032 0.000000 10.956795 0.000073 -0.000007 0.000017 -11.812001 -2.956704 16.173347 -0.000001 -0.000001 0.017640 9.526429 27.186859 -9.891507 0.000000 -0.000003 0.000046 0.000001 -0.000034 18.665586 0.000003 0.000007 0.000000 
17.566514 -0.498136 23.265601 4.363774 11.597792 -8.641645 -2.127784 -0.125756 8.377918 0.045757 0.079324 -1.381812 -0.376940 0.296236 1.240846 1.564899 0.541522 9.996064 5.412762 0.951489 5.282107 -11.749676 6.138710 3.475186 -4.456807 1.087952 1.991229 -0.000014 0.000043 0.000001 8.468300 -11.399437 -1.722964 61.837517 -2.699980 13.174375 0.000087 66.308777 -9.471868 14.920543 -10.731182 0.061495 16.032333 -9.341886 0.001867 -10.132945 0.000019 0.000055 -1.840581 -0.000002 0.000016 0.000001 -0.000030 -0.000001 -0.951461 -3.074836 -9.278427 21.976059 -9.798792 -1.936552 15.364349 0.242610 -1.370267 -0.869271 0.000029 0.078444 0.000001 -0.000002 -0.000013 -2.262703 -4.422831 -3.900882 21.909756 -9.512085 -4.676741 20.265696 0.818478 -4.442811 11.184401 0.223468 -2.485804 0.000011 -0.000005 0.000003 -0.175569 6.992815 0.664745 10.072450 -5.346853 0.918801 -12.536757 -0.137013 -1.122458 -4.010755 -0.016603 -0.361655 0.000009 0.000010 -0.000006 10.591495 1.599814 47.124130 -3.138655 13.426785 1.222868 -16.909956 9.428887 -6.599244 0.000006 -0.000017 -0.000077 -11.102957 8.543870 -1.696816 -58.215023 2.184071 12.849595 -0.000319 -87.388428 -19.861879 -12.222217 10.092742 0.009682 -6.462535 7.735730 -0.018507 -31.146589 -0.000006 0.000018 -12.560737 0.000000 0.000010 0.000010 -0.000008 -0.000011 -0.789942 2.026987 -12.170429 -4.268764 5.791348 -0.383584 -41.394886 -1.304782 -3.421127 -5.889869 -0.038701 -0.530609 0.000012 0.000018 -0.000057 -0.458968 1.335650 -6.641465 3.146413 12.830818 0.685625 -30.866013 -1.859139 -6.588721 -19.130808 -0.736090 -4.203285 0.000017 0.000034 0.000003 0.292406 -6.473856 -3.831243 -7.684984 10.753021 0.718381 -19.766092 0.414928 1.749238 -7.575628 0.058768 0.681692 -0.000002 -0.000011 0.000002 -13.517936 1.664741 44.305954 1.749861 0.712495 -0.923450 -1.926040 1.306377 0.497604 -0.000030 0.000030 -0.000001 -14.391039 -1.124607 0.998803 -0.000025 -0.000010 24.998047 -2.135711 -25.676716 -12.599658 -0.000071 -0.000027 -0.000006 -0.000030 0.000000 10.990714 0.000072 -0.000007 0.000018 -11.590700 -3.086200 16.139879 -0.000001 -0.000000 -0.170795 9.323237 27.237726 -9.836422 0.000000 -0.000005 0.000045 0.000001 -0.000034 18.776480 0.000004 0.000006 0.000000 
16.846467 -0.455633 23.209167 4.448030 11.811194 -8.472419 -2.343491 -0.087973 8.486937 -0.007256 0.097337 -1.361462 -0.450713 0.408892 1.304736 1.495759 0.565230 10.126440 5.213746 1.166545 5.527954 -11.847968 6.391055 3.241802 -4.517125 1.113218 1.914131 -0.000013 0.000042 0.000001 8.634903 -11.590282 -1.782849 63.046829 -4.364329 11.812605 0.000077 62.993534 -11.365732 14.738565 -9.861984 0.061256 15.535814 -9.345757 0.001985 -9.964723 0.000018 0.000055 -1.872501 -0.000002 0.000014 0.000001 -0.000033 0.000000 -1.020996 -3.026502 -9.274617 20.271807 -9.680805 -1.792411 13.647010 0.182956 -1.220141 -1.035993 -0.000329 0.093487 0.000001 -0.000002 -0.000013 -2.286052 -4.260508 -4.323366 21.213596 -10.752810 -4.531178 19.413132 0.737452 -4.262699 10.627073 0.186049 -2.363180 0.000012 -0.000006 0.000003 -0.290647 7.030708 0.553744 9.741877 -5.290848 0.889136 -12.686205 -0.134837 -1.135606 -4.282140 -0.015200 -0.386081 0.000009 0.000009 -0.000006 10.280946 2.226704 46.839355 -3.433820 13.933167 1.212367 -17.180851 9.559210 -6.720021 0.000006 -0.000017 -0.000078 -11.497737 8.759169 -1.790382 -59.382591 4.711769 14.565994 -0.000383 -87.573837 -20.535688 -12.942984 10.071612 0.010836 -0.397100 8.961684 -0.020569 -28.934996 -0.000006 0.000017 -10.304549 0.000000 0.000009 0.000010 -0.000008 -0.000012 -0.789498 2.097173 -12.042523 1.628766 6.106272 0.145993 -40.421112 -1.238053 -3.354544 -4.531082 -0.023169 -0.408488 0.000011 0.000018 -0.000057 -0.510518 1.461394 -6.986394 8.634039 13.635612 1.876711 -30.510925 -1.815496 -6.519907 -17.843218 -0.627000 -3.929221 0.000016 0.000034 0.000001 0.383499 -6.346014 -3.474829 -2.145245 10.282982 0.195907 -15.420051 0.268254 1.375220 -5.708520 0.034546 0.514315 -0.000002 -0.000010 0.000002 -13.925510 -0.015404 42.194866 3.164160 -0.168218 -1.396139 -0.390487 0.302653 0.053523 -0.000030 0.000028 -0.000001 -14.200463 -1.292665 1.288873 -0.000024 -0.000010 24.710768 -2.179507 -25.126263 -13.164331 -0.000072 -0.000025 -0.000005 -0.000029 -0.000000 10.978277 0.000071 -0.000006 0.000019 -11.216420 -3.226006 16.049421 -0.000001 0.000000 -0.291056 8.974101 27.216835 -9.804323 0.000000 -0.000006 0.000043 0.000001 -0.000033 18.906437 0.000005 0.000005 0.000000 
15.944334 -0.392600 23.118969 4.475461 12.125376 -8.274191 -2.534518 -0.055484 8.521962 -0.062346 0.112645 -1.350234 -0.513344 0.508009 1.342389 1.447646 0.586449 10.181164 5.058712 1.311353 5.694877 -11.961822 6.542095 3.089597 -4.561996 1.129544 1.851590 -0.000012 0.000041 0.000001 8.689289 -11.670260 -1.806769 64.238876 -5.373880 10.158136 0.000069 59.379993 -13.567119 13.760132 -8.747165 0.057260 15.328911 -9.339061 0.001969 -8.883807 0.000017 0.000056 -1.497059 -0.000003 0.000012 0.000001 -0.000036 0.000002 -1.086119 -3.000714 -9.169723 19.068138 -9.393152 -1.689222 12.912091 0.153909 -1.155545 -0.870309 0.000436 0.078537 0.000001 -0.000002 -0.000013 -2.293269 -4.126688 -4.710182 20.884604 -11.661913 -4.462526 19.272987 0.720952 -4.232958 10.497696 0.172560 -2.334633 0.000012 -0.000006 0.000003 -0.360419 7.090903 0.433369 9.630775 -5.392644 0.879569 -12.062570 -0.128533 -1.080619 -4.205940 -0.013960 -0.379222 0.000009 0.000009 -0.000006 10.080362 2.701226 46.730049 -3.617586 14.470283 1.258179 -17.369104 9.650339 -6.802814 0.000006 -0.000017 -0.000078 -11.742416 8.859511 -1.844037 -60.342739 6.475070 16.032490 -0.000369 -87.212448 -21.072035 -13.681385 10.061748 0.012862 5.181601 10.059776 -0.018758 -27.356796 -0.000006 0.000017 -8.363367 0.000000 0.000008 0.000010 -0.000008 -0.000011 -0.767076 2.151716 -11.919254 7.141094 6.371572 0.639783 -40.087696 -1.215104 -3.331521 -3.454026 -0.011450 -0.311522 0.000011 0.000018 -0.000058 -0.527244 1.599987 -7.259746 13.954103 14.204575 3.016838 -30.590647 -1.828081 -6.535460 -16.911734 -0.548549 -3.729715 0.000015 0.000035 0.000000 0.450796 -6.235747 -3.163390 2.744157 9.928987 -0.269003 -11.764440 0.153764 1.054439 -4.109553 0.015631 0.370536 -0.000002 -0.000010 0.000003 -14.285857 -1.416784 40.419800 4.405471 -0.961013 -1.811900 0.950676 -0.568589 -0.341742 -0.000030 0.000027 -0.000001 -13.884524 -1.631651 1.696310 -0.000023 -0.000010 24.250265 -2.322108 -24.598524 -13.691207 -0.000072 -0.000024 -0.000005 -0.000029 -0.000000 10.966925 0.000069 -0.000006 0.000019 -10.649302 -3.384691 15.881437 -0.000001 0.000000 -0.335948 8.458873 27.126133 -9.799629 0.000000 -0.000007 0.000042 0.000001 -0.000033 19.092175 0.000006 0.000005 -0.000000 
